<svg xmlns="http://www.w3.org/2000/svg" version="1.1" xmlns:xlink="http://www.w3.org/1999/xlink" width="200" height="200"><svg xmlns="http://www.w3.org/2000/svg" version="1.1" xmlns:xlink="http://www.w3.org/1999/xlink" width="200" height="200"><svg xmlns="http://www.w3.org/2000/svg" version="1.1" xmlns:xlink="http://www.w3.org/1999/xlink" viewBox="0 0 200 200"><rect width="200" height="200" fill="url('#gradient')"></rect><defs><linearGradient id="gradient" gradientTransform="rotate(45 0.5 0.5)"><stop offset="0%" stop-color="#2c3e50"></stop><stop offset="100%" stop-color="#2c3e50"></stop></linearGradient></defs><g><g fill="#fbfdff" transform="matrix(8.424131627056672,0,0,8.424131627056672,0.971516719248001,159.05487961481433)" stroke="#0e5278" stroke-width="0.2"><path d="M8.94 0L5.91-5.29L4.50-3.75L4.50 0L1.07 0L1.07-14.22L4.50-14.22L4.50-7.95L5.69-9.76L8.76-14.22L13.00-14.22L8.19-7.93L13.00 0L8.94 0ZM19.25-2.97L19.25-2.97Q19.25-3.39 18.81-3.64Q18.37-3.90 17.14-4.17Q15.91-4.44 15.11-4.89Q14.31-5.33 13.89-5.97Q13.47-6.60 13.47-7.42L13.47-7.42Q13.47-8.88 14.67-9.82Q15.87-10.76 17.81-10.76L17.81-10.76Q19.90-10.76 21.17-9.81Q22.44-8.87 22.44-7.32L22.44-7.32L19.14-7.32Q19.14-8.59 17.80-8.59L17.80-8.59Q17.29-8.59 16.93-8.31Q16.58-8.02 16.58-7.59L16.58-7.59Q16.58-7.15 17.01-6.88Q17.44-6.60 18.38-6.43Q19.33-6.25 20.04-6.01L20.04-6.01Q22.42-5.19 22.42-3.07L22.42-3.07Q22.42-1.62 21.14-0.71Q19.85 0.20 17.81 0.20L17.81 0.20Q16.46 0.20 15.39-0.29Q14.33-0.78 13.73-1.62Q13.13-2.46 13.13-3.39L13.13-3.39L16.21-3.39Q16.23-2.66 16.70-2.32Q17.17-1.98 17.90-1.98L17.90-1.98Q18.57-1.98 18.91-2.26Q19.25-2.53 19.25-2.97Z"></path></g></g></svg></svg><style>@media (prefers-color-scheme: light) { :root { filter: none; } }
@media (prefers-color-scheme: dark) { :root { filter: none; } }
</style></svg>